<?xml version="1.0" encoding="utf-8"?>
<!-- Generator: Adobe Illustrator 18.0.0, SVG Export Plug-In . SVG Version: 6.00 Build 0)  -->
<!DOCTYPE svg PUBLIC "-//W3C//DTD SVG 1.1//EN" "http://www.w3.org/Graphics/SVG/1.1/DTD/svg11.dtd">
<svg version="1.1" id="Слой_1" xmlns="http://www.w3.org/2000/svg" xmlns:xlink="http://www.w3.org/1999/xlink" x="0px" y="0px"
	 viewBox="0 0 1024 768" enable-background="new 0 0 1024 768" xml:space="preserve">
<path fill="#000000"      d="
	M1018.5,228c-2.2-3.3-11.9-4.3-11.9-4.3c-5.4-2.2-22.8-2.2-22.8-2.2c-8.1-3.3-23.9,0.5-23.9,0.5c-15.7-1.1-31.4-21.6-31.4-21.6
	c-16.3-19.6-28.3,2.1-28.3,2.1c-2.2,4.9-7.6,10.8-7.6,10.8c-2.7,1.1-13,2.7-13,2.7c1.9-4.9-1.3-6.7-1.3-6.7
	c-2.9-2.5-7.4,3.9-7.4,3.9c-5.4-2.2-9.8,0.8-9.8,0.8c-4.3-2-9.8,0.3-9.8,0.3c-9.8-2.2-14.7,7.2-14.7,7.2s-24.9-1.2-46.3,0
	c0,0-36.8-10.1-84.3,24.3c0,0-20.2,6.5-67.1,10.1c0,0-21.5-2.2-49.3-1.3V-1.1h-15.5v256.8c-27.8,2.2-58.9,8.1-80.5,22.3
	c0,0-101.7-22-168.7-10.1c0,0-29.1-4.2-41.5,4.2c0,0-15.4,6.5-20.2,8.3c0,0-20.8,6.5-51,7.1c0,0-16.7,0.3-38,3.4
	c0,0-44.5,4.9-59.3-2.8c0,0-32-8.9-59.9-7.7L43.3,281c0,0-14.2-1.2-21.4,1.8l-14.8,3c0,0-5.9,4.8,2.4,8.8c0,0,7.1,11.4,20.8,11.4
	c0,0,8.9,5.5,14.8,4.3c0,0,19-0.2,26.1,12.3c0,0,13.1,16,27.3,13.1c0,0,14.8-8.9,17.8-15.4c0,0,38,4.8,52.8,7.7
	c0,0,55.2,17.2,113.9-4.8c0,0,16-5.3,42.1-1.8c0,0,53.3,14.7,91.9,14.1c0,0,15.5-0.5,20.9,7.3c0,0,13.7,38.1,59.3,41.3
	c0,0,14.6-0.7,27.4-7.4c10.4,6.5,24.3,17.5,23.6,29.2c0,0-18.9,31.3-28.6,53.8c0,0-21.6,41.5-13.5,70.4c0,0,0.6,7.9,22.6,1.4
	c0,0,27.4-11.4,45.6-24.3v260.9h15.5V490.5c0,0,23.7-8.9,30.3-16.6c0,0,19,2.4,28.5-0.6c0,0-3.1,20.2,4.2,25v6.5
	c0,0-0.1,3.2,3.5,6.8c0,0,2.4,8.9,6,10.9c0,0-35.1,61.3-14.5,105.6c0,0,8.9,20.6,7.7,27.4c0,0,3.6-2.4-0.4-21c0,0-9.7-27,0-35.5
	c0,0,1.2,48.4,15.3,65.7c0,0,9.7,13.3,7.3,24.2c0,0,4.4-4,0.8-19.7c0,0,10.5,46.3,39.1,43.9c0,0-13.3-2.8-8.9-15.3
	c0,0,1.6,11.3,12.1,10.5c0,0-9.7-2,0-25.8c0,0,4-11.3,5.2-17.3c0,0,3.6,21.2-2.4,30.6c0,0,11.7-0.4,22.6-44.7c0,0-6,31.8,8.5,37.5
	c0,0-11.3-8.9,3.2-45.5c0,0-2.8,19.7,11.7,19.7c0,0-8.5-7.3-1.6-29.8c0,0,16.5-36.7,10.9-68.1c0,0,10.5,16.1,4,36.7
	c0,0,16.5-17.7,1-66.5c0,0-4.6-35.9-24.7-52.4c0,0-4.8-14.9-18.5-15.3l-6.2-5.2l8.1-5.3c32-10.3,46.1-45,46.1-45
	c17.9-10.8,43.4-66.1,43.4-66.1c15.7-15.2,18.4-39.6,18.4-39.6l6.3-49.3c14.1-4.3,39.8-4.9,39.8-4.9c24.9,4.9,90.9-5.3,91.7-5.2
	c7.5,0.5,19.5-5.1,19.5-5.1l15.7-3.3C1026.3,231.2,1018.5,228,1018.5,228z M545.5,370.7c5.7,1,12.9,3.6,20,9.5
	c-2.5,2.3-6.2,0.6-11.9-2.9C553.6,377.3,550.5,375,545.5,370.7z M574.3,447.1c-6.5,6.1-16.2,14.6-26.3,20.9c0,0,18-49.3,20.4-63
	c0,0,3.1-6.2,5.9-13.4L574.3,447.1L574.3,447.1z M821.3,285.8c-10.9,24.5-14.2,43.9-14.2,43.9c-14.2,13.1-48.7,54.3-48.7,54.3
	c-13.1,11.6-30.3,8.6-30.3,8.6C722.2,391.4,718,376,718,376c-7.1-39.2-40.9-26.1-40.9-26.1c-9.5,1.2-22.6-8.3-22.6-8.3
	c-4.7-5.3-23.1-11.9-23.1-11.9c8.3-7.7,45.7-22.6,45.7-22.6c31.5-5.3,45.7-12.5,45.7-12.5c8.9-3.6,19-11.9,19-11.9
	c26.1-13.1,87.2-19.9,87.2-19.9C829,266.2,821.3,285.8,821.3,285.8z"/>
</svg>
